# xmcd CD database file
#
# Track frame offsets:
#	150
#	20700
#	41315
#	65058
#	86508
#	110968
#	126578
#	146195
#	169446
#	199676
#	220153
#	242071
#	257431
#	272131
#	299561
#
# Disc length: 4038 seconds
#
# Revision: 0
# Processed by: cddbd v1.5.2PL0 Copyright (c) Steve Scherf et al.
# Submitted via: CDex 1.51
#
DISCID=f70fc40f
DTITLE=Jamey Aebersold - Phil Woods
DYEAR=2008
DGENRE=Jazz
TTITLE0=01 - Drifting
TTITLE1=02 - Eddie's Blues
TTITLE2=03 - House of Chan
TTITLE3=04 - Johnny Hodges
TTITLE4=05 - Lady J
TTITLE5=06 - The Stanley Stomper
TTITLE6=07 - The Squire's Parlor
TTITLE7=08 - Samba Dubois
TTITLE8=09 - Waltz for a Lovely Wife
TTITLE9=10 - Without You
TTITLE10=11 - Sugan
TTITLE11=12 - Lew Blew
TTITLE12=13 - Cool Aid
TTITLE13=14 - Dutch Morning
TTITLE14=15 - Tuning Notes
EXTD=YEAR: 2008
EXTT0=
EXTT1=
EXTT2=
EXTT3=
EXTT4=
EXTT5=
EXTT6=
EXTT7=
EXTT8=
EXTT9=
EXTT10=
EXTT11=
EXTT12=
EXTT13=
EXTT14=
PLAYORDER=
